<svg width="32" height="32" viewBox="0 0 32 32" fill="none" xmlns="http://www.w3.org/2000/svg">
<path d="M6.66669 25.0267V23.6933H8.82135V13.1267C8.82135 11.3844 9.37246 9.85244 10.4747 8.53067C11.5769 7.20889 12.9742 6.38578 14.6667 6.06133V5.33333C14.6667 4.96267 14.796 4.648 15.0547 4.38933C15.3134 4.12978 15.6276 4 15.9974 4C16.3671 4 16.6822 4.12978 16.9427 4.38933C17.2031 4.64889 17.3334 4.96356 17.3334 5.33333V6.06133C19.0258 6.38578 20.4231 7.20933 21.5254 8.532C22.6276 9.85467 23.1787 11.3867 23.1787 13.128V23.692H25.3334V25.0253L6.66669 25.0267ZM15.996 28.5133C15.4022 28.5133 14.8956 28.3022 14.476 27.88C14.0565 27.4578 13.8467 26.9511 13.8467 26.36H18.1534C18.1534 26.9556 17.9422 27.4631 17.52 27.8827C17.0969 28.3022 16.5889 28.5133 15.996 28.5133ZM10.1547 23.6933H21.8467V13.128C21.8467 11.5076 21.2774 10.128 20.1387 8.98933C19 7.85067 17.6205 7.28178 16 7.28267C14.3796 7.28356 13 7.85244 11.8614 8.98933C10.7227 10.1262 10.1538 11.5058 10.1547 13.128V23.6933Z" fill="black" fill-opacity="0.71"/>
</svg>
