<svg width="32" height="32" viewBox="0 0 32 32" fill="none" xmlns="http://www.w3.org/2000/svg">
<path d="M3.99998 17.3333H5.33331V26.6667C5.33331 28.1373 6.52931 29.3333 7.99998 29.3333H24C25.4706 29.3333 26.6666 28.1373 26.6666 26.6667V17.3333H28C28.2636 17.3333 28.5214 17.2551 28.7406 17.1085C28.9598 16.962 29.1307 16.7538 29.2316 16.5102C29.3324 16.2666 29.3588 15.9986 29.3074 15.74C29.256 15.4814 29.1291 15.2438 28.9426 15.0573L16.9426 3.05734C16.6926 2.80738 16.3535 2.66696 16 2.66696C15.6464 2.66696 15.3074 2.80738 15.0573 3.05734L3.05731 15.0573C2.8709 15.2438 2.74396 15.4814 2.69254 15.74C2.64111 15.9986 2.66752 16.2666 2.76841 16.5102C2.8693 16.7538 3.04016 16.962 3.25937 17.1085C3.47858 17.2551 3.73631 17.3333 3.99998 17.3333ZM13.3333 26.6667V20H18.6666V26.6667H13.3333ZM16 5.88534L24 13.8853V20L24.0013 26.6667H21.3333V20C21.3333 18.5293 20.1373 17.3333 18.6666 17.3333H13.3333C11.8626 17.3333 10.6666 18.5293 10.6666 20V26.6667H7.99998V13.8853L16 5.88534Z" fill="black" fill-opacity="0.71"/>
</svg>
