<svg width="32" height="32" viewBox="0 0 32 32" fill="none" xmlns="http://www.w3.org/2000/svg">
<path fill-rule="evenodd" clip-rule="evenodd" d="M16 5.33334C16.5354 5.33334 17.0606 5.37195 17.5756 5.44915L18.3497 7.7943C19.0278 7.98782 19.6724 8.26363 20.2697 8.61106L22.4945 7.5383C23.2823 8.14325 23.9833 8.85639 24.5745 9.65487L23.4621 11.8598C23.8004 12.4653 24.0615 13.1104 24.2454 13.7951L26.5768 14.6072C26.7066 15.5931 26.6978 16.5922 26.5509 17.5756L24.2057 18.3497C24.0131 19.0207 23.7387 19.6655 23.389 20.2697L24.4617 22.4945C23.8566 23.2831 23.1442 23.9832 22.3452 24.5745L20.1402 23.4621C19.5303 23.8028 18.8802 24.0659 18.205 24.2453L17.3928 26.5768C16.407 26.7065 15.4078 26.6978 14.4244 26.5509L13.6503 24.2057C12.9793 24.013 12.3345 23.7387 11.7303 23.389L9.50555 24.4617C8.71699 23.8566 8.01688 23.1441 7.42555 22.3452L8.53793 20.1402C8.19863 19.5296 7.93558 18.8797 7.75469 18.205L5.42327 17.3912C5.29365 16.4059 5.30237 15.4073 5.44917 14.4244L7.79431 13.6503C7.98784 12.9722 8.26365 12.3276 8.61108 11.7303L7.53831 9.50553C8.14348 8.71697 8.85589 8.01686 9.65489 7.42553L11.8598 8.53792C12.4698 8.1972 13.1199 7.93408 13.7951 7.75468L14.6088 5.42325C15.0649 5.36331 15.5287 5.33334 16 5.33334Z" stroke="black" stroke-opacity="0.71" stroke-width="2.12571" stroke-linecap="round" stroke-linejoin="round"/>
<path d="M16 20.5714C18.5247 20.5714 20.5714 18.5247 20.5714 16C20.5714 13.4753 18.5247 11.4286 16 11.4286C13.4753 11.4286 11.4286 13.4753 11.4286 16C11.4286 18.5247 13.4753 20.5714 16 20.5714Z" stroke="black" stroke-opacity="0.71" stroke-width="2.28571" stroke-linecap="round" stroke-linejoin="round"/>
</svg>
